<svg xmlns="http://www.w3.org/2000/svg" viewBox="0 0 512 512" role="img" aria-label="Flamme CCFF">
  <defs>
    <linearGradient id="flameOuter" x1="256" y1="56" x2="256" y2="452" gradientUnits="userSpaceOnUse">
      <stop offset="0" stop-color="#ff8a00"/>
      <stop offset="0.55" stop-color="#f4511e"/>
      <stop offset="1" stop-color="#c1121f"/>
    </linearGradient>
    <linearGradient id="flameInner" x1="256" y1="220" x2="256" y2="420" gradientUnits="userSpaceOnUse">
      <stop offset="0" stop-color="#ffe066"/>
      <stop offset="1" stop-color="#ff8a00"/>
    </linearGradient>
  </defs>

  <!-- forest base -->
  <path d="M120 452 q136 -34 272 0 q-22 26 -76 26 h-120 q-54 0 -76 -26 Z" fill="#1f7a3d"/>

  <!-- outer flame -->
  <path fill="url(#flameOuter)" d="M256 56
    C 300 140 372 176 372 280
    C 372 366 320 432 256 452
    C 192 432 140 366 140 280
    C 140 210 196 196 224 140
    C 236 184 268 188 268 188
    C 272 140 256 96 256 56 Z"/>

  <!-- inner flame -->
  <path fill="url(#flameInner)" d="M256 220
    C 280 252 312 276 312 324
    C 312 372 286 408 256 420
    C 226 408 200 372 200 324
    C 200 296 224 280 240 252
    C 246 274 264 276 264 276
    C 266 252 258 240 256 220 Z"/>
</svg>
